<svg xmlns="http://www.w3.org/2000/svg" xmlns:xlink="http://www.w3.org/1999/xlink" viewBox="0 0 1065.35 1065.35"><defs><style>.cls-1{fill:url(#Degradado_sin_nombre_34);}.cls-2{fill:#fff;}</style><linearGradient id="Degradado_sin_nombre_34" x1="255.16" y1="-704.26" x2="1262.91" y2="3787.47" gradientUnits="userSpaceOnUse"><stop offset="0.17" stop-color="#ed6e25"/><stop offset="0.24" stop-color="#ee6b24"/><stop offset="0.29" stop-color="#ef6121"/><stop offset="0.33" stop-color="#f2501b"/><stop offset="0.38" stop-color="#f63813"/><stop offset="0.42" stop-color="#fb1a09"/><stop offset="0.45" stop-color="red"/><stop offset="0.72" stop-color="red"/></linearGradient></defs><g id="Capa_2" data-name="Capa 2"><g id="Capa_1-2" data-name="Capa 1"><circle class="cls-1" cx="532.67" cy="532.67" r="532.67"/><path class="cls-2" d="M435.49,705.11a23.2,23.2,0,0,1,17.1-6.84,25.09,25.09,0,0,1,17.09,6.84c33.05,33,87.77,33,122,0a23.37,23.37,0,0,1,33.05,33c-51.29,51.28-136.77,51.28-188.06,0a22.47,22.47,0,0,1-1.14-33Z"/><path class="cls-2" d="M377.37,763.24a23.16,23.16,0,0,1,17.09-6.84,25.09,25.09,0,0,1,17.09,6.84,167.86,167.86,0,0,0,238.22,0,23.37,23.37,0,1,1,33.05,33,214.64,214.64,0,0,1-304.32,0,22.46,22.46,0,0,1-1.13-33Z"/><path class="cls-2" d="M319.24,854.42a23.36,23.36,0,0,1,17.09-39.88,25.15,25.15,0,0,1,17.1,6.83,250.38,250.38,0,0,0,354.47,0,23.37,23.37,0,0,1,33.05,33A295.76,295.76,0,0,1,531.23,941c-80.92,1.14-156.15-30.77-212-86.62Z"/><path class="cls-2" d="M607.81,602.2a6.63,6.63,0,0,1-6.47,6.78H502.25a57.64,57.64,0,0,1-21.75-3.77A45,45,0,0,1,465,595a42.66,42.66,0,0,1-9.42-14.68,48.31,48.31,0,0,1-3.19-17.57V532.87a67.59,67.59,0,0,1,6.93-30.51,76.33,76.33,0,0,1,19-24.26,88,88,0,0,1,28-16,100.69,100.69,0,0,1,33.94-5.66h61.13a6.63,6.63,0,0,1,6.47,6.78v21.3a6.64,6.64,0,0,1-6.47,6.78H539.65a53,53,0,0,0-18.56,3.19,50.32,50.32,0,0,0-15.1,8.72,38.94,38.94,0,0,0-10.11,13.08,38,38,0,0,0-3.6,16.56v29q0,6.68,5.68,9.44a27.78,27.78,0,0,0,12.32,2.76h91.06a6.63,6.63,0,0,1,6.47,6.78Z"/><path class="cls-2" d="M718.06,552q-24.4,0-38.35-11.33t-13.94-34.87v-3.48a44.91,44.91,0,0,1,3.48-17.58,42.55,42.55,0,0,1,10.32-14.67,48,48,0,0,1,17.14-10Q707,456.46,721,456.46h70.59a60.73,60.73,0,0,1,21.36,3.63A53.75,53.75,0,0,1,829.77,470a43.63,43.63,0,0,1,15,33.26v99A6.78,6.78,0,0,1,838,609H809.67a6.78,6.78,0,0,1-6.78-6.78V558.82a6.77,6.77,0,0,0-6.78-6.78ZM707.6,565.5v36.7a6.77,6.77,0,0,1-6.78,6.78H672.55a6.77,6.77,0,0,1-6.78-6.78V565.5a6.78,6.78,0,0,1,6.78-6.78h28.27A6.78,6.78,0,0,1,707.6,565.5Zm18.88-74.18q-9.3,0-14.09,3.63a11.7,11.7,0,0,0-2.9,15.83,12.92,12.92,0,0,0,4.79,4.07,19.48,19.48,0,0,0,6.25,1.89,48.49,48.49,0,0,0,6.24.44h69.35a6.78,6.78,0,0,0,6.77-6.78h0a19,19,0,0,0-18.49-19.08H726.48Z"/><path class="cls-2" d="M262.45,456.46v46.77a9.62,9.62,0,0,0,6,9.44,30.22,30.22,0,0,0,12.93,2.76h58.1q13.95,0,24.26,3.64a49.65,49.65,0,0,1,17.29,10,40.13,40.13,0,0,1,10.31,14.67,46.68,46.68,0,0,1,3.34,17.58v.87a43.67,43.67,0,0,1-15,33.26,53.64,53.64,0,0,1-16.85,9.88A59.58,59.58,0,0,1,341.77,609H227.4a6.77,6.77,0,0,1-6.78-6.78V580.9a6.77,6.77,0,0,1,6.78-6.78H333.92a31.16,31.16,0,0,0,13.22-2.62q5.67-2.61,5.67-9.29,0-11.91-18.89-11.91h-61q-13.07,0-22.8-3.78a47.36,47.36,0,0,1-16.27-10.17A42.53,42.53,0,0,1,224,521.68a46.48,46.48,0,0,1-3.34-17.58"/><path class="cls-2" d="M273.67,456.47H376c10.15,0,18.38,7.54,18.38,16.84h0c0,9.44-8.46,17-18.76,16.84l-102.69.36"/><path class="cls-2" d="M624.6,360.24a23.22,23.22,0,0,1-17.09,6.83,25.17,25.17,0,0,1-17.1-6.83c-33-33.05-87.76-33.05-122,0a23.37,23.37,0,1,1-33.05-33.05c51.29-51.29,136.77-51.29,188.06,0a22.45,22.45,0,0,1,1.14,33.05Z"/><path class="cls-2" d="M682.73,302.1a23.2,23.2,0,0,1-17.1,6.84,25.09,25.09,0,0,1-17.09-6.84,167.86,167.86,0,0,0-238.21,0,23.37,23.37,0,1,1-33.05-33,214.62,214.62,0,0,1,304.32,0,22.46,22.46,0,0,1,1.13,33Z"/><path class="cls-2" d="M740.85,210.92a23.37,23.37,0,0,1-17.09,39.89A25.09,25.09,0,0,1,706.67,244a250.4,250.4,0,0,0-354.47,0,23.37,23.37,0,1,1-33.05-33.05A295.8,295.8,0,0,1,528.86,124.3c80.92-1.14,156.15,30.78,212,86.62Z"/></g></g></svg>